<svg width="24" height="24" viewBox="0 0 24 24" fill="none" xmlns="http://www.w3.org/2000/svg">
<path d="M8.59 13.5102L15.42 17.4902M15.41 6.51024L8.59 10.4902M21 5.00024C21 6.65709 19.6569 8.00024 18 8.00024C16.3431 8.00024 15 6.65709 15 5.00024C15 3.34339 16.3431 2.00024 18 2.00024C19.6569 2.00024 21 3.34339 21 5.00024ZM9 12.0002C9 13.6571 7.65685 15.0002 6 15.0002C4.34315 15.0002 3 13.6571 3 12.0002C3 10.3433 4.34315 9.00024 6 9.00024C7.65685 9.00024 9 10.3433 9 12.0002ZM21 19.0002C21 20.6571 19.6569 22.0002 18 22.0002C16.3431 22.0002 15 20.6571 15 19.0002C15 17.3433 16.3431 16.0002 18 16.0002C19.6569 16.0002 21 17.3433 21 19.0002Z" stroke="#252525" stroke-width="2" stroke-linecap="round" stroke-linejoin="round"/>
</svg>
