<svg width="32" height="32" viewBox="0 0 32 32" fill="none" xmlns="http://www.w3.org/2000/svg">
<path d="M7.8875 13.2875H1.2375C0.9 13.2875 0.625 13.5625 0.625 13.9C0.625 14.2375 0.9 14.5125 1.2375 14.5125H7.8875C8.225 14.5125 8.5 14.2375 8.5 13.9C8.5 13.5625 8.225 13.2875 7.8875 13.2875Z" fill="white" stroke="white" stroke-width="0.4"/>
<path d="M7.8874 16.9H4.8249C4.4874 16.9 4.2124 17.175 4.2124 17.5125C4.2124 17.85 4.4874 18.125 4.8249 18.125H7.8874C8.2249 18.125 8.4999 17.85 8.4999 17.5125C8.4999 17.175 8.2249 16.9 7.8874 16.9Z" fill="white" stroke="white" stroke-width="0.4"/>
<path d="M7.8876 20.5125H2.8376C2.5001 20.5125 2.2251 20.7875 2.2251 21.125C2.2251 21.4625 2.5001 21.7375 2.8376 21.7375H7.8876C8.2251 21.7375 8.5001 21.4625 8.5001 21.125C8.5001 20.7875 8.2251 20.5125 7.8876 20.5125Z" fill="white" stroke="white" stroke-width="0.4"/>
<path d="M30.3626 12.9875C29.8626 11.925 29.2001 10.9625 28.3876 10.125C28.0001 9.7125 27.5626 9.3375 27.1126 9L27.9126 7.9375C28.1126 7.6625 28.0626 7.275 27.7876 7.075C27.5126 6.875 27.1251 6.925 26.9251 7.2L26.0751 8.325C25.5126 7.9875 24.9126 7.7125 24.3001 7.4875C23.7626 7.3 23.2126 7.15 22.6501 7.0375C22.2876 6.975 21.9126 6.925 21.5501 6.9V5.0375H22.7876C23.1251 5.0375 23.4001 4.7625 23.4001 4.425C23.4001 4.0875 23.1251 3.8125 22.7876 3.8125H19.0751C18.7376 3.8125 18.4626 4.0875 18.4626 4.425C18.4626 4.7625 18.7376 5.0375 19.0751 5.0375H20.3126V6.85C18.8876 6.9 17.4751 7.2375 16.1751 7.8375C15.1126 8.3375 14.1501 8.9875 13.3001 9.8C12.1126 10.925 11.2001 12.3375 10.6376 13.875C10.4376 14.4125 10.2876 14.9875 10.1751 15.5625C10.0626 16.1375 10.0126 16.7125 9.98759 17.2875C9.95009 18.9375 10.3001 20.5875 11.0126 22.0875C11.5126 23.1375 12.1626 24.0875 12.9751 24.925C14.1126 26.1125 15.5251 27.025 17.0626 27.575C17.6001 27.7625 18.1501 27.9125 18.7126 28.025C19.2751 28.125 19.8376 28.1875 20.4126 28.2C20.5001 28.2 20.6001 28.2 20.6876 28.2C22.2376 28.2 23.7876 27.8625 25.1876 27.2C26.2376 26.7125 27.2001 26.0625 28.0376 25.2625C29.2376 24.125 30.1626 22.7125 30.7251 21.1625C30.9251 20.625 31.0751 20.05 31.1751 19.4875C31.2876 18.9125 31.3501 18.325 31.3626 17.75C31.4126 16.1125 31.0626 14.4625 30.3626 12.9875ZM29.9751 19.25C29.8751 19.7625 29.7501 20.25 29.5751 20.7375C29.0751 22.1 28.2626 23.3625 27.2001 24.3625C26.4626 25.0625 25.6126 25.65 24.6751 26.075C23.3626 26.6875 21.8876 27 20.4626 26.95C19.9626 26.9375 19.4626 26.8875 18.9626 26.7875C18.4626 26.7 17.9751 26.5625 17.5001 26.4C16.1376 25.9125 14.8876 25.1 13.8876 24.05C13.1751 23.3125 12.5876 22.4625 12.1501 21.5375C11.5251 20.225 11.2126 18.75 11.2501 17.3C11.2626 16.7875 11.3126 16.275 11.4126 15.775C11.5126 15.2625 11.6501 14.7625 11.8126 14.2875C12.3001 12.925 13.1126 11.6875 14.1626 10.6875C14.9126 9.975 15.7626 9.3875 16.7126 8.95C17.9501 8.375 19.3251 8.075 20.6876 8.075C20.7626 8.075 20.8501 8.075 20.9251 8.075C21.4251 8.0875 21.9251 8.1375 22.4251 8.2375C22.9251 8.325 23.4126 8.4625 23.8876 8.6375C25.2501 9.125 26.5001 9.925 27.5001 10.975C28.2126 11.725 28.8001 12.575 29.2501 13.5125C29.8626 14.825 30.1751 16.275 30.1376 17.725C30.1251 18.225 30.0751 18.75 29.9751 19.25Z" fill="white" stroke="white" stroke-width="0.4"/>
<path d="M24.5125 13.2375L21.875 15.625C21.7375 15.5375 21.6 15.475 21.45 15.4125C21.3375 15.375 21.225 15.3375 21.1125 15.325C20.9875 15.3 20.875 15.2875 20.7625 15.2875C20.425 15.275 20.075 15.35 19.7625 15.5C19.5375 15.6 19.3375 15.7375 19.1625 15.9125C18.9125 16.15 18.725 16.4375 18.6125 16.7625C18.575 16.875 18.5375 16.9875 18.5125 17.1125C18.4875 17.2375 18.475 17.35 18.475 17.475C18.4625 17.825 18.5375 18.1625 18.6875 18.475C18.7875 18.7 18.925 18.8875 19.1 19.0625C19.3375 19.3125 19.6375 19.5 19.95 19.6125C20.0625 19.65 20.175 19.6875 20.2875 19.7C20.4 19.725 20.525 19.7375 20.6375 19.7375C20.6625 19.7375 20.675 19.7375 20.7 19.7375C21.025 19.7375 21.35 19.6625 21.6375 19.525C21.85 19.425 22.0625 19.2875 22.2375 19.125C22.4875 18.8875 22.675 18.5875 22.8 18.275C22.8375 18.1625 22.875 18.05 22.9 17.925C22.925 17.8 22.9375 17.6875 22.9375 17.5625C22.95 17.225 22.875 16.875 22.725 16.5625C22.725 16.55 22.7125 16.55 22.7125 16.5375L25.3625 14.15C25.6125 13.925 25.6375 13.525 25.4125 13.275C25.1625 13.0375 24.775 13.0125 24.5125 13.2375ZM21.675 17.7C21.6625 17.75 21.65 17.8125 21.6375 17.8625C21.5875 18 21.5 18.1375 21.3875 18.2375C21.3125 18.3125 21.225 18.375 21.125 18.4125C20.9875 18.475 20.8375 18.5 20.6875 18.5C20.6375 18.5 20.575 18.4875 20.525 18.4875C20.475 18.475 20.425 18.4625 20.375 18.45C20.2375 18.4 20.1 18.3125 20 18.2C19.925 18.125 19.8625 18.0375 19.8125 17.9375C19.75 17.8 19.7125 17.65 19.7125 17.5C19.7125 17.45 19.725 17.3875 19.725 17.3375C19.7375 17.2875 19.75 17.225 19.7625 17.175C19.8125 17.0375 19.9 16.9 20.0125 16.8C20.0875 16.725 20.175 16.6625 20.275 16.6125C20.4125 16.55 20.55 16.525 20.6875 16.525C20.7 16.525 20.7 16.525 20.7125 16.525C20.7625 16.525 20.8125 16.5375 20.875 16.5375C20.925 16.55 20.975 16.5625 21.025 16.575C21.175 16.625 21.3 16.7125 21.4 16.825C21.475 16.9 21.5375 17 21.5875 17.0875C21.65 17.225 21.6875 17.375 21.675 17.525C21.6875 17.5875 21.675 17.65 21.675 17.7Z" fill="white" stroke="white" stroke-width="0.4"/>
</svg>
